<?xml version="1.0" encoding="UTF-8"?>
<svg xmlns="http://www.w3.org/2000/svg" viewBox="0 0 512 512" width="64" height="64">
  <defs>
    <linearGradient id="bg" x1="0" y1="0" x2="0" y2="1">
      <stop offset="0%" stop-color="#1E82E6"/>
      <stop offset="100%" stop-color="#31B3FE"/>
    </linearGradient>
    <linearGradient id="outerFlame" x1="0" y1="1" x2="0" y2="0">
      <stop offset="0%" stop-color="#E84D1A"/>
      <stop offset="30%" stop-color="#F07020"/>
      <stop offset="60%" stop-color="#F5A623"/>
      <stop offset="100%" stop-color="#FDD835"/>
    </linearGradient>
    <linearGradient id="innerFlame" x1="0" y1="1" x2="0" y2="0">
      <stop offset="0%" stop-color="#F5A623"/>
      <stop offset="50%" stop-color="#FDD835"/>
      <stop offset="100%" stop-color="#FFF9C4"/>
    </linearGradient>
  </defs>
  <rect width="512" height="512" fill="url(#bg)"/>
  <path d="M256 72 C256 72, 210 140, 200 190 C188 248, 172 270, 168 300 C160 352, 180 400, 220 424 C240 436, 256 440, 256 440 C256 440, 272 436, 292 424 C332 400, 352 352, 344 300 C340 270, 324 248, 312 190 C302 140, 256 72, 256 72Z" fill="url(#outerFlame)"/>
  <path d="M256 210 C256 210, 236 260, 232 290 C226 330, 236 370, 256 386 C276 370, 286 330, 280 290 C276 260, 256 210, 256 210Z" fill="url(#innerFlame)"/>
</svg>
